<svg width="231" height="32" viewBox="0 0 231 32" fill="none" xmlns="http://www.w3.org/2000/svg">
<g filter="url(#filter0_d_512_16)">
<path d="M38.0781 17.2599V15.7599L44.0781 13.1179V14.8438L39.9702 16.4929L40.0256 16.4034V16.6165L39.9702 16.527L44.0781 18.1761V19.902L38.0781 17.2599ZM47.696 16.2159V20H45.8807V13.4545H47.6108V14.6094H47.6875C47.8324 14.2287 48.0753 13.9276 48.4162 13.706C48.7571 13.4815 49.1705 13.3693 49.6562 13.3693C50.1108 13.3693 50.5071 13.4688 50.8452 13.6676C51.1832 13.8665 51.446 14.1506 51.6335 14.5199C51.821 14.8864 51.9148 15.3239 51.9148 15.8324V20H50.0994V16.1562C50.1023 15.7557 50 15.4432 49.7926 15.2188C49.5852 14.9915 49.2997 14.8778 48.9361 14.8778C48.6918 14.8778 48.4759 14.9304 48.2884 15.0355C48.1037 15.1406 47.9588 15.294 47.8537 15.4957C47.7514 15.6946 47.6989 15.9347 47.696 16.2159ZM55.1609 11.2727V20H53.3455V11.2727H55.1609ZM57.9062 20L56.125 13.4545H57.9616L58.9759 17.8523H59.0355L60.0923 13.4545H61.8949L62.9688 17.8267H63.0241L64.0213 13.4545H65.8537L64.0767 20H62.1548L61.0298 15.8835H60.9489L59.8239 20H57.9062ZM70.6232 10.8636L67.8107 21.3125H66.2468L69.0593 10.8636H70.6232ZM77.8516 17.2599L71.8516 19.902V18.1761L75.9595 16.527L75.9041 16.6165V16.4034L75.9595 16.4929L71.8516 14.8438V13.1179L77.8516 15.7599V17.2599Z" fill="white"/>
</g>
<g filter="url(#filter1_d_512_16)">
<path d="M88.1548 12.6378C88.098 12.0649 87.8542 11.6198 87.4233 11.3026C86.9924 10.9853 86.4077 10.8267 85.669 10.8267C85.1671 10.8267 84.7434 10.8977 84.3977 11.0398C84.0521 11.1771 83.7869 11.3688 83.6023 11.6151C83.4223 11.8613 83.3324 12.1406 83.3324 12.4531C83.3229 12.7135 83.3774 12.9408 83.4957 13.1349C83.6188 13.3291 83.7869 13.4972 84 13.6392C84.2131 13.7765 84.4593 13.8973 84.7386 14.0014C85.018 14.1009 85.3163 14.1861 85.6335 14.2571L86.9403 14.5696C87.5748 14.7116 88.1572 14.901 88.6875 15.1378C89.2178 15.3745 89.6771 15.6657 90.0653 16.0114C90.4536 16.357 90.7543 16.7642 90.9673 17.233C91.1851 17.7017 91.2964 18.2391 91.3011 18.8452C91.2964 19.7353 91.0691 20.5071 90.6193 21.1605C90.1742 21.8092 89.5303 22.3134 88.6875 22.6733C87.8494 23.0284 86.8385 23.206 85.6548 23.206C84.4806 23.206 83.4579 23.026 82.5866 22.6662C81.7202 22.3063 81.0431 21.7737 80.5554 21.0682C80.0724 20.358 79.8191 19.4796 79.7955 18.4332H82.7713C82.8045 18.9209 82.9441 19.3281 83.1903 19.6548C83.4413 19.9768 83.7751 20.2206 84.1918 20.3864C84.6132 20.5473 85.089 20.6278 85.6193 20.6278C86.1402 20.6278 86.5923 20.5521 86.9759 20.4006C87.3641 20.2491 87.6648 20.0384 87.8778 19.7685C88.0909 19.4986 88.1974 19.1884 88.1974 18.8381C88.1974 18.5114 88.1004 18.2367 87.9062 18.0142C87.7169 17.7917 87.4375 17.6023 87.0682 17.446C86.7036 17.2898 86.2562 17.1477 85.7259 17.0199L84.142 16.6222C82.9157 16.3239 81.9474 15.8575 81.2372 15.223C80.527 14.5885 80.1742 13.7339 80.179 12.6591C80.1742 11.7784 80.4086 11.009 80.8821 10.3509C81.3603 9.69271 82.0161 9.17898 82.8494 8.80966C83.6828 8.44034 84.6297 8.25568 85.6903 8.25568C86.7699 8.25568 87.7121 8.44034 88.517 8.80966C89.3267 9.17898 89.9564 9.69271 90.4062 10.3509C90.8561 11.009 91.0881 11.7713 91.1023 12.6378H88.1548ZM93.3697 23V8.45455H103.171V10.9901H96.445V14.456H102.667V16.9915H96.445V20.4645H103.199V23H93.3697ZM105.062 10.9901V8.45455H117.008V10.9901H112.555V23H109.515V10.9901H105.062ZM127.96 8.45455H131.035V17.9006C131.035 18.9612 130.781 19.8892 130.275 20.6847C129.773 21.4801 129.07 22.1004 128.165 22.5455C127.261 22.9858 126.208 23.206 125.005 23.206C123.798 23.206 122.742 22.9858 121.837 22.5455C120.933 22.1004 120.23 21.4801 119.728 20.6847C119.226 19.8892 118.975 18.9612 118.975 17.9006V8.45455H122.05V17.6378C122.05 18.1918 122.171 18.6842 122.413 19.1151C122.659 19.5459 123.004 19.8845 123.45 20.1307C123.895 20.3769 124.413 20.5 125.005 20.5C125.602 20.5 126.12 20.3769 126.56 20.1307C127.005 19.8845 127.349 19.5459 127.59 19.1151C127.836 18.6842 127.96 18.1918 127.96 17.6378V8.45455ZM133.565 23V8.45455H139.304C140.407 8.45455 141.347 8.66525 142.123 9.08665C142.9 9.50331 143.492 10.0833 143.899 10.8267C144.311 11.5653 144.517 12.4176 144.517 13.3835C144.517 14.3494 144.308 15.2017 143.892 15.9403C143.475 16.679 142.871 17.2543 142.081 17.6662C141.295 18.0781 140.343 18.2841 139.225 18.2841H135.568V15.8196H138.728C139.32 15.8196 139.808 15.7178 140.191 15.5142C140.58 15.3059 140.868 15.0194 141.058 14.6548C141.252 14.2855 141.349 13.8617 141.349 13.3835C141.349 12.9006 141.252 12.4792 141.058 12.1193C140.868 11.7547 140.58 11.473 140.191 11.2741C139.803 11.0705 139.311 10.9688 138.714 10.9688H136.64V23H133.565Z" fill="white"/>
</g>
<path d="M156.503 16.8011V25H152.57V6.09091H156.392V13.3203H156.558C156.878 12.4832 157.395 11.8277 158.109 11.3537C158.823 10.8736 159.719 10.6335 160.796 10.6335C161.781 10.6335 162.64 10.849 163.372 11.2798C164.111 11.7045 164.683 12.317 165.089 13.1172C165.502 13.9112 165.705 14.8622 165.699 15.9702V25H161.766V16.6719C161.772 15.7978 161.55 15.1177 161.101 14.6314C160.658 14.1451 160.036 13.902 159.236 13.902C158.7 13.902 158.226 14.0159 157.814 14.2436C157.408 14.4714 157.088 14.8037 156.854 15.2408C156.626 15.6716 156.509 16.1918 156.503 16.8011ZM172.838 25.2678C171.933 25.2678 171.127 25.1108 170.419 24.7969C169.711 24.4768 169.151 24.0059 168.739 23.3842C168.333 22.7564 168.129 21.9747 168.129 21.0391C168.129 20.2512 168.274 19.5895 168.563 19.054C168.853 18.5185 169.247 18.0876 169.745 17.7614C170.244 17.4351 170.81 17.1889 171.444 17.0227C172.084 16.8565 172.755 16.7396 173.457 16.6719C174.282 16.5857 174.946 16.5057 175.451 16.4318C175.956 16.3518 176.322 16.2348 176.55 16.081C176.778 15.9271 176.892 15.6993 176.892 15.3977V15.3423C176.892 14.7576 176.707 14.3052 176.338 13.9851C175.974 13.665 175.457 13.505 174.786 13.505C174.079 13.505 173.515 13.6619 173.097 13.9759C172.678 14.2836 172.401 14.6714 172.266 15.1392L168.628 14.8438C168.813 13.982 169.176 13.2372 169.718 12.6094C170.259 11.9754 170.958 11.4891 171.813 11.1506C172.675 10.8059 173.672 10.6335 174.805 10.6335C175.593 10.6335 176.347 10.7259 177.067 10.9105C177.793 11.0952 178.436 11.3814 178.997 11.7692C179.563 12.157 180.009 12.6555 180.335 13.2649C180.662 13.8681 180.825 14.5914 180.825 15.4347V25H177.095V23.0334H176.984C176.756 23.4766 176.451 23.8674 176.07 24.206C175.688 24.5384 175.23 24.8 174.694 24.9908C174.159 25.1754 173.54 25.2678 172.838 25.2678ZM173.965 22.5533C174.543 22.5533 175.054 22.4394 175.497 22.2116C175.941 21.9777 176.288 21.6638 176.541 21.2699C176.793 20.8759 176.919 20.4297 176.919 19.9311V18.4261C176.796 18.5062 176.627 18.58 176.411 18.6477C176.202 18.7093 175.965 18.7678 175.7 18.8232C175.436 18.8724 175.171 18.9186 174.906 18.9616C174.642 18.9986 174.402 19.0324 174.186 19.0632C173.725 19.1309 173.321 19.2386 172.977 19.3864C172.632 19.5341 172.364 19.7341 172.173 19.9865C171.983 20.2327 171.887 20.5405 171.887 20.9098C171.887 21.4453 172.081 21.8546 172.469 22.1378C172.863 22.4148 173.361 22.5533 173.965 22.5533ZM183.95 25V6.09091H187.883V13.2003H188.003C188.176 12.8187 188.425 12.4309 188.751 12.0369C189.084 11.6368 189.515 11.3045 190.044 11.0398C190.579 10.7689 191.244 10.6335 192.038 10.6335C193.072 10.6335 194.026 10.9044 194.9 11.446C195.774 11.9815 196.473 12.791 196.996 13.8743C197.519 14.9515 197.781 16.3026 197.781 17.9276C197.781 19.5095 197.526 20.8452 197.015 21.9347C196.51 23.018 195.821 23.8397 194.947 24.3999C194.079 24.9538 193.106 25.2308 192.029 25.2308C191.266 25.2308 190.616 25.1046 190.081 24.8523C189.551 24.5999 189.117 24.2829 188.779 23.9013C188.44 23.5135 188.182 23.1226 188.003 22.7287H187.828V25H183.95ZM187.8 17.9091C187.8 18.7524 187.917 19.4879 188.151 20.1158C188.385 20.7436 188.724 21.233 189.167 21.5838C189.61 21.9285 190.148 22.1009 190.782 22.1009C191.423 22.1009 191.964 21.9254 192.407 21.5746C192.851 21.2176 193.186 20.7251 193.414 20.0973C193.648 19.4633 193.765 18.7339 193.765 17.9091C193.765 17.0904 193.651 16.3703 193.423 15.7486C193.195 15.1269 192.86 14.6406 192.417 14.2898C191.974 13.9389 191.429 13.7635 190.782 13.7635C190.142 13.7635 189.601 13.9328 189.157 14.2713C188.72 14.6098 188.385 15.09 188.151 15.7116C187.917 16.3333 187.8 17.0658 187.8 17.9091ZM200.406 25V10.8182H204.339V25H200.406ZM202.381 8.99006C201.797 8.99006 201.295 8.79616 200.876 8.40838C200.464 8.01444 200.258 7.54356 200.258 6.99574C200.258 6.45407 200.464 5.98935 200.876 5.60156C201.295 5.20762 201.797 5.01065 202.381 5.01065C202.966 5.01065 203.465 5.20762 203.877 5.60156C204.296 5.98935 204.505 6.45407 204.505 6.99574C204.505 7.54356 204.296 8.01444 203.877 8.40838C203.465 8.79616 202.966 8.99006 202.381 8.99006ZM215.033 10.8182V13.7727H206.492V10.8182H215.033ZM208.431 7.42045H212.365V20.642C212.365 21.0052 212.42 21.2884 212.531 21.4915C212.642 21.6884 212.795 21.8269 212.992 21.907C213.195 21.987 213.429 22.027 213.694 22.027C213.879 22.027 214.063 22.0116 214.248 21.9808C214.433 21.9439 214.574 21.9162 214.673 21.8977L215.291 24.8246C215.094 24.8861 214.817 24.9569 214.46 25.0369C214.103 25.1231 213.669 25.1754 213.159 25.1939C212.211 25.2308 211.38 25.1046 210.666 24.8153C209.958 24.526 209.407 24.0767 209.013 23.4673C208.619 22.858 208.425 22.0885 208.431 21.1591V7.42045ZM229.217 14.8622L225.616 15.0838C225.555 14.776 225.422 14.4991 225.219 14.2528C225.016 14.0005 224.748 13.8004 224.416 13.6527C224.09 13.4988 223.699 13.4219 223.243 13.4219C222.634 13.4219 222.12 13.5511 221.701 13.8097C221.283 14.062 221.074 14.4006 221.074 14.8253C221.074 15.1638 221.209 15.45 221.48 15.6839C221.751 15.9179 222.215 16.1056 222.874 16.2472L225.441 16.7642C226.819 17.0473 227.847 17.5028 228.525 18.1307C229.202 18.7585 229.54 19.5833 229.54 20.6051C229.54 21.5346 229.266 22.3501 228.718 23.0518C228.177 23.7536 227.432 24.3014 226.484 24.6953C225.542 25.0831 224.456 25.277 223.225 25.277C221.347 25.277 219.852 24.8861 218.738 24.1044C217.63 23.3165 216.98 22.2455 216.789 20.8913L220.658 20.6882C220.775 21.2607 221.058 21.6977 221.507 21.9993C221.957 22.2947 222.532 22.4425 223.234 22.4425C223.923 22.4425 224.477 22.3101 224.896 22.0455C225.321 21.7746 225.536 21.4268 225.542 21.0021C225.536 20.6451 225.385 20.3527 225.09 20.125C224.794 19.8911 224.339 19.7126 223.723 19.5895L221.267 19.1001C219.882 18.8232 218.851 18.343 218.174 17.6598C217.503 16.9766 217.168 16.1056 217.168 15.0469C217.168 14.1359 217.414 13.3511 217.907 12.6925C218.405 12.0339 219.104 11.526 220.002 11.169C220.907 10.812 221.966 10.6335 223.179 10.6335C224.97 10.6335 226.379 11.0121 227.407 11.7692C228.441 12.5263 229.045 13.5573 229.217 14.8622Z" fill="#6D28D9"/>
<rect x="1" y="1" width="29" height="30" rx="7" fill="#4C1D95" stroke="#6D28D9" stroke-width="2"/>
<defs>
<filter id="filter0_d_512_16" x="34.0781" y="6.86364" width="47.7734" height="18.4489" filterUnits="userSpaceOnUse" color-interpolation-filters="sRGB">
<feFlood flood-opacity="0" result="BackgroundImageFix"/>
<feColorMatrix in="SourceAlpha" type="matrix" values="0 0 0 0 0 0 0 0 0 0 0 0 0 0 0 0 0 0 127 0" result="hardAlpha"/>
<feOffset/>
<feGaussianBlur stdDeviation="2"/>
<feComposite in2="hardAlpha" operator="out"/>
<feColorMatrix type="matrix" values="0 0 0 0 0 0 0 0 0 0 0 0 0 0 0 0 0 0 0.75 0"/>
<feBlend mode="normal" in2="BackgroundImageFix" result="effect1_dropShadow_512_16"/>
<feBlend mode="normal" in="SourceGraphic" in2="effect1_dropShadow_512_16" result="shape"/>
</filter>
<filter id="filter1_d_512_16" x="75.7955" y="4.25568" width="72.7212" height="22.9503" filterUnits="userSpaceOnUse" color-interpolation-filters="sRGB">
<feFlood flood-opacity="0" result="BackgroundImageFix"/>
<feColorMatrix in="SourceAlpha" type="matrix" values="0 0 0 0 0 0 0 0 0 0 0 0 0 0 0 0 0 0 127 0" result="hardAlpha"/>
<feOffset/>
<feGaussianBlur stdDeviation="2"/>
<feComposite in2="hardAlpha" operator="out"/>
<feColorMatrix type="matrix" values="0 0 0 0 0 0 0 0 0 0 0 0 0 0 0 0 0 0 0.75 0"/>
<feBlend mode="normal" in2="BackgroundImageFix" result="effect1_dropShadow_512_16"/>
<feBlend mode="normal" in="SourceGraphic" in2="effect1_dropShadow_512_16" result="shape"/>
</filter>
</defs>
</svg>
